PathFileType	4	(X/Y/Z)	C:\Documents and Settings\rtobon\Desktop\NewMocap\New\NoT\ActorC_TPose.trc
DataRate	CameraRate	NumFrames	NumMarkers	Units	OrigDataRate	OrigDataStartFrame	OrigNumFrames
120.00	120.00	       5	49	mm	120.00	1	       277
Frame#	Time	Root			LtFtHip			LtBkHip			RtFtHip			RtBkHip			Spine1			Spine2			Spine3			SpineOffsetLow			SpineOffsetHigh			LtCtChest			RtCtChest			LtChest			RtChest			LtShoulder			LtBicep			LtElbow			LtForeArm			LtWrist			LtPinky			LtThumb			LtMiddFing			RtShoulder			RtBicep			RtElbow			RtForeArm			RtWrist			RtPinky			RtThumb			RtMiddFing			LtThigh			LtKnee			LtCalf			LtAnkle			LtHeel			LtBall			LtToe			RtThigh			RtKnee			RtCalf			RtAnkle			RtHeel			RtBall			RtToe			TopHead			LfFtHead			LtBkHead			RtFtHead			RtBkHead			
		X1	Y1	Z1	X2	Y2	Z2	X3	Y3	Z3	X4	Y4	Z4	X5	Y5	Z5	X6	Y6	Z6	X7	Y7	Z7	X8	Y8	Z8	X9	Y9	Z9	X10	Y10	Z10	X11	Y11	Z11	X12	Y12	Z12	X13	Y13	Z13	X14	Y14	Z14	X15	Y15	Z15	X16	Y16	Z16	X17	Y17	Z17	X18	Y18	Z18	X19	Y19	Z19	X20	Y20	Z20	X21	Y21	Z21	X22	Y22	Z22	X23	Y23	Z23	X24	Y24	Z24	X25	Y25	Z25	X26	Y26	Z26	X27	Y27	Z27	X28	Y28	Z28	X29	Y29	Z29	X30	Y30	Z30	X31	Y31	Z31	X32	Y32	Z32	X33	Y33	Z33	X34	Y34	Z34	X35	Y35	Z35	X36	Y36	Z36	X37	Y37	Z37	X38	Y38	Z38	X39	Y39	Z39	X40	Y40	Z40	X41	Y41	Z41	X42	Y42	Z42	X43	Y43	Z43	X44	Y44	Z44	X45	Y45	Z45	X46	Y46	Z46	X47	Y47	Z47	X48	Y48	Z48	X49	Y49	Z49	

1	0.000	30.07526	978.47443	-146.05310	162.29079	935.37463	61.93770	162.82574	971.58405	-112.34955	-110.87125	930.19940	68.41172	-108.10876	951.11493	-121.97141	30.00406	1137.08276	-140.95241	32.48854	1279.33228	-144.74228	40.34588	1406.84241	-111.26968	-53.88563	1043.96362	-129.88272	130.83368	1353.04529	-130.26743	55.25910	1213.83911	118.78324	-4.14300	1284.55188	104.72306	127.85340	1323.90063	85.43759	-72.87874	1330.44702	73.82726	165.19093	1425.72009	-13.38034	360.16098	1381.19849	-8.11247	477.44473	1363.07495	-78.47646	587.75940	1369.52100	8.36268	708.23376	1376.58765	-11.33803	770.77539	1342.42334	-56.26640	737.07184	1354.21252	55.44316	762.55200	1382.71460	-0.32877	-112.60732	1425.96436	-34.64206	-297.67648	1378.68677	9.99689	-407.55353	1373.21680	-99.30731	-532.23926	1387.07483	9.08588	-656.22791	1414.23975	-32.75557	-718.88525	1375.05640	-76.36684	-678.77686	1376.46069	39.82872	-718.15363	1410.86353	-18.94646	169.97058	680.74994	64.55830	192.43402	487.52435	-14.75670	202.75406	375.81342	-138.58838	203.26053	167.70972	-83.61790	151.83473	46.48003	-173.22849	212.01556	64.18504	4.70386	154.67805	57.63341	99.42888	-129.30656	670.66278	55.29124	-160.60181	511.50226	-22.65829	-189.99937	376.79828	-128.78609	-182.24797	166.09225	-97.54739	-122.56007	48.03688	-170.66924	-206.01031	65.30453	5.57289	-150.56465	65.00368	100.77838	32.02299	1691.74817	-30.22266	90.92165	1626.35437	66.18966	122.53229	1547.10950	-63.19146	-47.01579	1624.85291	45.52988	-36.10386	1545.57275	-92.69515	
2	0.008	30.33352	978.25238	-145.76334	162.25931	935.23694	62.13217	162.82574	971.58405	-112.34955	-110.78538	930.21741	68.58850	-108.04964	950.88391	-121.93111	30.00406	1137.08276	-140.95241	32.29326	1279.33643	-144.84839	40.48967	1406.84961	-111.18142	-53.76561	1043.92651	-129.75885	130.83368	1353.04529	-130.26743	55.25910	1213.83911	118.78324	-4.09308	1284.41553	104.63593	127.72974	1323.75635	85.31695	-72.87874	1330.44702	73.82726	165.33200	1425.86060	-13.35994	360.20508	1381.23792	-8.06799	477.38339	1363.03882	-78.50070	587.77643	1369.51489	8.32252	708.25037	1376.59875	-11.58423	770.80798	1342.31909	-56.26812	737.08411	1354.04773	55.36100	762.54865	1382.70959	-0.09938	-112.56567	1426.13184	-34.50523	-297.65250	1378.71240	9.96393	-407.52823	1373.18738	-99.42826	-532.15210	1386.99719	9.10327	-656.26605	1414.30774	-32.78339	-718.70178	1375.10852	-76.38795	-678.81128	1376.28882	39.88215	-718.22980	1411.00134	-19.01965	170.01816	680.75281	64.57204	192.50185	487.47308	-14.76668	202.78592	375.89359	-138.67072	203.26074	167.73412	-83.59388	151.89801	46.27640	-172.79791	212.38820	64.03867	4.73053	154.63490	57.61829	99.36852	-129.30731	670.72382	55.19688	-160.69176	511.46979	-22.71719	-189.92166	376.72192	-128.65913	-182.24797	166.09225	-97.54739	-122.56007	48.03688	-170.66924	-205.95834	65.32327	5.52892	-150.56465	65.00368	100.77838	31.98619	1691.69348	-30.24089	90.60800	1625.88086	65.94017	122.66319	1547.05127	-63.26791	-46.96261	1624.79651	45.48930	-35.97589	1545.59058	-93.21399	
3	0.017	30.33352	978.25238	-145.76334	162.37021	935.36340	62.20457	162.80772	971.56812	-112.19356	-110.78538	930.21741	68.58850	-108.04864	951.00830	-122.05974	30.00406	1137.08276	-140.95241	32.39839	1279.27917	-144.81651	40.61007	1406.92981	-111.08607	-53.76561	1043.92651	-129.75885	130.83368	1353.04529	-130.26743	55.25910	1213.83911	118.78324	-4.13726	1284.55237	104.61059	127.94138	1323.83264	85.34570	-72.78532	1330.61292	73.76963	165.25261	1425.81689	-13.48012	360.21228	1381.11401	-8.09214	477.41318	1362.99585	-78.52587	587.83069	1369.56189	8.56085	708.36334	1376.44971	-11.51367	770.73975	1342.19763	-56.24261	736.97589	1353.94348	55.29034	762.61560	1382.57861	-0.26322	-112.56947	1426.08154	-34.44250	-297.59836	1378.70923	9.92229	-407.77695	1373.50745	-99.56464	-532.15527	1387.06543	9.16398	-656.28644	1414.32654	-32.84254	-718.57397	1375.11230	-76.45651	-678.76147	1376.39917	39.85320	-718.16656	1410.99255	-18.96401	169.99377	680.90375	64.68497	192.50185	487.47308	-14.76668	202.75406	375.81342	-138.58838	203.29906	167.66418	-83.63489	151.90277	46.12291	-172.62093	212.44582	64.19246	4.68145	154.64555	57.56934	99.47101	-129.30731	670.72382	55.19688	-160.60181	511.50226	-22.65829	-189.92166	376.72192	-128.65913	-182.17302	165.91939	-97.63194	-122.56007	48.03688	-170.66924	-205.95834	65.32327	5.52892	-150.49992	64.94526	100.76525	32.07397	1691.71729	-30.27893	90.68018	1625.91443	65.83834	122.68496	1546.98132	-63.21671	-46.90843	1624.83997	45.46468	-35.90485	1545.54053	-93.20168	
4	0.025	30.46427	978.15027	-145.67551	162.20786	935.38422	61.95639	162.81316	971.50378	-112.22939	-110.87125	930.19940	68.41172	-107.92099	950.96039	-121.95772	30.00406	1137.08276	-140.95241	32.62468	1279.23376	-144.83458	40.84779	1406.58972	-111.23662	-53.76561	1043.92651	-129.75885	130.83368	1353.04529	-130.26743	55.25910	1213.83911	118.78324	-4.13726	1284.55237	104.61059	127.94138	1323.83264	85.34570	-72.74008	1330.52112	73.68475	165.43271	1425.86316	-13.60816	360.25314	1381.08838	-8.10135	477.49118	1362.98584	-78.47924	587.86053	1369.44775	8.33290	708.23956	1376.35461	-11.47194	770.81683	1342.14136	-56.29974	737.06049	1353.87000	55.23310	762.61560	1382.57861	-0.26322	-112.42059	1426.11682	-34.46842	-297.49014	1378.78699	9.84141	-407.71411	1373.45642	-99.59887	-532.12872	1387.01257	9.11930	-656.29150	1414.43005	-32.84937	-718.41101	1375.21692	-76.55048	-678.95337	1376.66846	39.56645	-717.90009	1410.69849	-18.77729	170.11375	680.84460	64.70216	192.36444	487.38519	-14.72528	202.75406	375.81342	-138.58838	203.29906	167.66418	-83.63489	151.68558	46.44405	-172.94035	212.34235	63.95242	5.16987	154.68788	57.56633	99.41599	-129.43237	670.60895	55.32613	-160.55333	511.44952	-22.56379	-189.99937	376.79828	-128.78609	-182.24797	166.09225	-97.54739	-122.56007	48.03688	-170.66924	-205.95834	65.32327	5.52892	-150.49992	64.94526	100.76525	32.07397	1691.71729	-30.27893	90.93292	1625.84290	65.84767	122.74291	1546.90454	-63.16155	-46.90843	1624.83997	45.46468	-35.70544	1545.55664	-92.95282	
5	0.033	30.46254	978.13483	-145.85957	162.46021	935.34857	62.21982	162.97716	971.59656	-112.15622	-110.78538	930.21741	68.58850	-107.83292	950.95740	-122.25161	30.00406	1137.08276	-140.95241	32.77188	1279.23462	-144.78322	40.87894	1406.72595	-111.33544	-53.76561	1043.92651	-129.75885	130.82661	1353.01257	-130.33057	55.25910	1213.83911	118.78324	-4.35000	1284.16528	104.46574	127.83501	1323.94946	85.40640	-72.74008	1330.52112	73.68475	165.41180	1425.82336	-13.52478	360.23181	1380.97375	-8.16877	477.59116	1362.89697	-78.44511	588.03107	1369.31580	8.25083	708.25336	1376.48376	-11.46020	770.88672	1341.98645	-56.32749	737.09015	1353.83984	55.24260	762.71802	1382.46802	-0.33831	-112.44241	1426.06177	-34.53944	-297.52618	1378.78687	9.79678	-407.59470	1373.24719	-99.39222	-532.12219	1387.04187	9.09549	-656.27014	1414.50647	-32.77430	-718.49493	1375.16016	-76.55627	-678.77686	1376.46069	39.82872	-718.10260	1411.05957	-19.00464	170.06339	680.91431	64.72950	192.50185	487.47308	-14.76668	202.92424	375.88004	-138.60507	203.23630	167.63843	-83.70506	151.77592	46.32158	-172.87291	212.32832	63.85953	5.07260	154.68788	57.56633	99.41599	-129.30731	670.72382	55.19688	-160.60181	511.50226	-22.65829	-189.99937	376.79828	-128.78609	-182.14856	166.03860	-97.50217	-122.64402	47.89280	-170.65057	-206.01031	65.30453	5.57289	-150.56465	65.00368	100.77838	32.16378	1691.59058	-30.25926	91.12185	1625.87183	65.69366	122.79726	1546.85754	-63.19947	-46.69790	1624.82983	45.54673	-35.71465	1545.67603	-92.51431	
